<svg xmlns="http://www.w3.org/2000/svg" version="1.1" xmlns:xlink="http://www.w3.org/1999/xlink" xmlns:svgjs="http://svgjs.dev/svgjs" width="1440" height="560" preserveAspectRatio="none" viewBox="0 0 1440 560"><g mask="url(&quot;#SvgjsMask1000&quot;)" fill="none"><rect width="1440" height="560" x="0" y="0" fill="rgba(43, 176, 231, 1)"></rect><path d="M0,485.102C92.479,466.266,188.667,468.068,269.49,419.335C351.729,369.748,416.821,295.92,457.799,209.07C499.103,121.529,496.337,24.583,501.352,-72.083C507.58,-192.116,564.883,-330.625,490.708,-425.201C416.989,-519.195,271.328,-512.797,151.969,-517.557C52.694,-521.516,-35.103,-471.355,-132.143,-450.038C-238.492,-426.677,-356.468,-448.564,-445.762,-386.255C-544.658,-317.246,-626.641,-211.93,-644.324,-92.64C-662.027,26.788,-590.006,136.719,-539.544,246.401C-489.224,355.775,-460.764,496.934,-350.664,545.644C-239.946,594.627,-118.633,509.265,0,485.102" fill="#1692c5"></path><path d="M1440 1208.8200000000002C1559.334 1210.437 1643.908 1095.7469999999998 1734.002 1017.476 1812.3029999999999 949.451 1875.499 872.1030000000001 1929.507 783.55 1990.286 683.895 2064.545 586.367 2068.089 469.694 2071.919 343.608 2041.934 204.399 1949.714 118.33100000000002 1858.953 33.625 1713.879 67.697 1595.911 29.014999999999986 1472.605-11.418000000000006 1366.019-152.48000000000002 1242.192-113.67100000000005 1117.893-74.71400000000006 1106.616 99.59500000000003 1031.395 205.942 965.591 298.975 852.833 360.798 827.936 471.998 802.431 585.914 836.417 708.13 896.558 808.182 953.447 902.823 1062.194 944.0509999999999 1151.075 1009.576 1247.186 1080.431 1320.605 1207.202 1440 1208.8200000000002" fill="#5cc2ed"></path></g><defs><mask id="SvgjsMask1000"><rect width="1440" height="560" fill="#ffffff"></rect></mask></defs></svg>