<?xml version="1.0" encoding="UTF-8"?>
<!DOCTYPE svg PUBLIC "-//W3C//DTD SVG 1.1//EN" "http://www.w3.org/Graphics/SVG/1.1/DTD/svg11.dtd">
<svg xmlns="http://www.w3.org/2000/svg" version="1.1" width="666px" height="174px" style="shape-rendering:geometricPrecision; text-rendering:geometricPrecision; image-rendering:optimizeQuality; fill-rule:evenodd; clip-rule:evenodd" xmlns:xlink="http://www.w3.org/1999/xlink">
<g><path style="opacity:1" fill="#716c78" d="M 160.5,-0.5 C 162.833,-0.5 165.167,-0.5 167.5,-0.5C 177.54,2.90267 181.374,9.90267 179,20.5C 173.646,30.4287 165.813,33.2621 155.5,29C 147.403,22.3447 145.903,14.5113 151,5.5C 153.843,2.83733 157.009,0.837327 160.5,-0.5 Z"/></g>
<g><path style="opacity:0.998" fill="#efd056" d="M 158.5,1.5 C 167.847,-0.577311 174.347,2.75602 178,11.5C 178.161,25.6709 171.328,31.1709 157.5,28C 150.915,23.5316 148.748,17.365 151,9.5C 153.028,6.30777 155.528,3.64111 158.5,1.5 Z"/></g>
<g><path style="opacity:1" fill="#56493c" d="M 166.5,3.5 C 165.733,4.17197 165.066,5.0053 164.5,6C 161.766,6.2104 159.266,7.04374 157,8.5C 156.761,10.7612 156.594,12.7612 156.5,14.5C 154.062,12.3439 153.895,10.0106 156,7.5C 159.554,6.48287 162.721,4.8162 165.5,2.5C 166.107,2.62358 166.44,2.95691 166.5,3.5 Z"/></g>
<g><path style="opacity:1" fill="#51453b" d="M 166.5,3.5 C 168.284,6.09336 170.617,8.26002 173.5,10C 172.619,10.7083 171.953,11.5416 171.5,12.5C 169.847,12.3404 168.514,11.6737 167.5,10.5C 172.506,10.4342 172.506,9.43416 167.5,7.5C 166.571,6.31116 166.238,4.97782 166.5,3.5 Z"/></g>
<g><path style="opacity:1" fill="#716142" d="M 159.5,8.5 C 160.833,8.5 162.167,8.5 163.5,8.5C 163.5,10.1667 163.5,11.8333 163.5,13.5C 159.424,13.7061 158.091,12.0394 159.5,8.5 Z"/></g>
<g><path style="opacity:1" fill="#917d48" d="M 167.5,10.5 C 168.514,11.6737 169.847,12.3404 171.5,12.5C 172.681,15.6377 172.681,18.6377 171.5,21.5C 171.662,19.4727 171.495,17.4727 171,15.5C 168.825,14.7454 166.659,13.912 164.5,13C 165.071,11.7949 165.738,10.6283 166.5,9.5C 167.107,9.62358 167.44,9.95691 167.5,10.5 Z"/></g>
<g><path style="opacity:1" fill="#53473b" d="M 159.5,19.5 C 155.208,17.6313 154.208,18.2979 156.5,21.5C 152.891,20.8178 152.225,19.3178 154.5,17C 156.668,16.7506 158.335,17.5839 159.5,19.5 Z"/></g>
<g><path style="opacity:1" fill="#453a38" d="M 159.5,19.5 C 162.125,18.5423 162.125,17.3757 159.5,16C 160.448,15.5172 161.448,15.3505 162.5,15.5C 162.5,17.1667 162.5,18.8333 162.5,20.5C 161.209,20.7373 160.209,20.404 159.5,19.5 Z"/></g>
<g><path style="opacity:1" fill="#4a3f39" d="M 168.5,17.5 C 169.791,18.5417 169.791,19.7083 168.5,21C 166.866,21.4935 165.199,21.6602 163.5,21.5C 163.261,19.5328 163.594,17.6995 164.5,16C 166.352,15.2274 167.686,15.7274 168.5,17.5 Z"/></g>
<g><path style="opacity:1" fill="#ddc253" d="M 168.5,17.5 C 168.166,20.2748 166.833,20.9415 164.5,19.5C 165.32,17.8888 166.654,17.2222 168.5,17.5 Z"/></g>
<g><path style="opacity:1" fill="#6b5e40" d="M 156.5,21.5 C 159.505,21.2501 161.338,22.5834 162,25.5C 162.483,24.552 162.649,23.552 162.5,22.5C 165.57,22.6323 168.57,22.299 171.5,21.5C 169.497,23.9819 166.831,24.9819 163.5,24.5C 163.5,25.5 163.5,26.5 163.5,27.5C 162.448,27.6495 161.448,27.4828 160.5,27C 159.964,24.4921 158.631,22.6587 156.5,21.5 Z"/></g>
<g><path style="opacity:1" fill="#fa7356" d="M 112.5,61.5 C 107.924,55.7244 101.924,53.5578 94.5,55C 92.5448,55.9533 90.8782,57.2866 89.5,59C 87.1341,59.4396 84.8008,59.9396 82.5,60.5C 79.2869,51.0307 75.9535,41.5307 72.5,32C 72.6448,31.228 72.9781,30.5613 73.5,30C 76.6621,28.9725 79.6621,27.8059 82.5,26.5C 96.7054,24.3996 110.539,25.733 124,30.5C 120.862,41.0793 117.029,51.4126 112.5,61.5 Z"/></g>
<g><path style="opacity:0.714" fill="#9f8793" d="M 82.5,26.5 C 79.6621,27.8059 76.6621,28.9725 73.5,30C 72.9781,30.5613 72.6448,31.228 72.5,32C 75.9535,41.5307 79.2869,51.0307 82.5,60.5C 82.5,61.1667 82.5,61.8333 82.5,62.5C 81.6873,60.7392 80.6873,59.0725 79.5,57.5C 79.5393,55.7761 79.206,55.4427 78.5,56.5C 77.6618,56.1583 77.3284,55.4916 77.5,54.5C 78.8333,53.8333 78.8333,53.1667 77.5,52.5C 77.7373,51.209 77.404,50.209 76.5,49.5C 76.7373,48.209 76.404,47.209 75.5,46.5C 75.7373,45.209 75.404,44.209 74.5,43.5C 74.7373,42.209 74.404,41.209 73.5,40.5C 72.5296,36.7807 71.6962,33.1141 71,29.5C 74.5865,27.5828 78.4199,26.5828 82.5,26.5 Z"/></g>
<g><path style="opacity:1" fill="#6e5740" d="M 97.5,31.5 C 101.929,32.5877 105.595,34.9211 108.5,38.5C 107.552,43.4351 107.219,48.4351 107.5,53.5C 101.833,53.5 96.1667,53.5 90.5,53.5C 90.781,48.4351 90.4476,43.4351 89.5,38.5C 92.1864,36.1442 94.853,33.8109 97.5,31.5 Z"/></g>
<g><path style="opacity:1" fill="#f8d858" d="M 97.5,33.5 C 100.661,34.4698 103.494,36.1365 106,38.5C 106.499,43.1548 106.666,47.8215 106.5,52.5C 105.167,52.5 103.833,52.5 102.5,52.5C 102.167,41.8333 101.833,41.8333 101.5,52.5C 99.8333,52.5 98.1667,52.5 96.5,52.5C 96.1667,41.8333 95.8333,41.8333 95.5,52.5C 94.1667,52.5 92.8333,52.5 91.5,52.5C 91.3342,47.8215 91.5008,43.1548 92,38.5C 94.1906,37.1666 96.024,35.5 97.5,33.5 Z"/></g>
<g><path style="opacity:0.965" fill="#8a8eae" d="M 128.5,39.5 C 127.167,39.5 125.833,39.5 124.5,39.5C 124.737,40.791 124.404,41.791 123.5,42.5C 123.5,41.1667 123.5,39.8333 123.5,38.5C 125.437,37.2942 127.104,37.6275 128.5,39.5 Z"/></g>
<g><path style="opacity:1" fill="#1b63de" d="M 128.5,39.5 C 129.492,39.3284 130.158,39.6618 130.5,40.5C 131.514,41.6737 132.847,42.3404 134.5,42.5C 135.492,42.3284 136.158,42.6618 136.5,43.5C 137.733,45.7964 139.733,47.1298 142.5,47.5C 142.833,47.5 143.167,47.5 143.5,47.5C 143.833,49.8333 145.167,51.1667 147.5,51.5C 148.5,52.1667 149.5,52.8333 150.5,53.5C 151.08,55.7488 152.413,57.4154 154.5,58.5C 155.419,61.0892 157.086,63.0892 159.5,64.5C 160.292,65.9669 160.292,67.3002 159.5,68.5C 151.148,74.5249 142.815,80.5249 134.5,86.5C 133.474,85.147 132.141,84.147 130.5,83.5C 129.167,80.1667 126.833,77.8333 123.5,76.5C 120.688,74.5919 117.688,72.9252 114.5,71.5C 113.89,70.609 113.557,69.609 113.5,68.5C 114.885,65.3409 115.885,62.0075 116.5,58.5C 117.167,58.5 117.5,58.1667 117.5,57.5C 118.117,57.3893 118.617,57.056 119,56.5C 120.812,51.8895 122.312,47.2228 123.5,42.5C 124.404,41.791 124.737,40.791 124.5,39.5C 125.833,39.5 127.167,39.5 128.5,39.5 Z"/></g>
<g><path style="opacity:1" fill="#5c68ab" d="M 72.5,40.5 C 71.8501,40.1961 71.1835,39.8627 70.5,39.5C 68.3821,40.9459 66.0488,41.6126 63.5,41.5C 65.7315,39.799 68.2315,38.4657 71,37.5C 72.0386,38.2438 72.5386,39.2438 72.5,40.5 Z"/></g>
<g><path style="opacity:1" fill="#2664dc" d="M 72.5,40.5 C 72.3455,43.716 73.3455,46.3826 75.5,48.5C 75.5,49.1667 75.8333,49.5 76.5,49.5C 76.2627,50.791 76.596,51.791 77.5,52.5C 77.5,53.1667 77.5,53.8333 77.5,54.5C 77.3284,55.4916 77.6618,56.1583 78.5,56.5C 78.5,56.8333 78.5,57.1667 78.5,57.5C 78.3455,60.716 79.3455,63.3826 81.5,65.5C 81.8333,65.5 82.1667,65.5 82.5,65.5C 82.5,66.5 82.5,67.5 82.5,68.5C 82.4431,69.609 82.1098,70.609 81.5,71.5C 73.9644,75.3659 67.6311,80.6992 62.5,87.5C 54.5097,82.1629 46.843,76.4962 39.5,70.5C 38.4726,68.8058 37.1392,67.4725 35.5,66.5C 36.0798,64.2512 37.4131,62.5846 39.5,61.5C 44.1667,57.5 48.5,53.1667 52.5,48.5C 55.6505,45.4208 59.3171,43.0875 63.5,41.5C 66.0488,41.6126 68.3821,40.9459 70.5,39.5C 71.1835,39.8627 71.8501,40.1961 72.5,40.5 Z"/></g>
<g><path style="opacity:0.384" fill="#9395ac" d="M 130.5,40.5 C 132.38,40.2291 133.713,40.8958 134.5,42.5C 132.847,42.3404 131.514,41.6737 130.5,40.5 Z"/></g>
<g><path style="opacity:0.988" fill="#70749f" d="M 72.5,40.5 C 72.8333,40.5 73.1667,40.5 73.5,40.5C 73.2627,41.791 73.596,42.791 74.5,43.5C 74.2627,44.791 74.596,45.791 75.5,46.5C 75.5,47.1667 75.5,47.8333 75.5,48.5C 73.3455,46.3826 72.3455,43.716 72.5,40.5 Z"/></g>
<g><path style="opacity:1" fill="#7277a9" d="M 136.5,43.5 C 138.882,44.3507 140.882,45.684 142.5,47.5C 139.733,47.1298 137.733,45.7964 136.5,43.5 Z"/></g>
<g><path style="opacity:0.851" fill="#888ca9" d="M 143.5,47.5 C 145.167,48.5 146.5,49.8333 147.5,51.5C 145.167,51.1667 143.833,49.8333 143.5,47.5 Z"/></g>
<g><path style="opacity:0.898" fill="#9c8895" d="M 123.5,38.5 C 121.926,40.1016 121.259,42.1016 121.5,44.5C 120.662,44.8417 120.328,45.5084 120.5,46.5C 119.596,47.209 119.263,48.209 119.5,49.5C 118.596,50.209 118.263,51.209 118.5,52.5C 117.596,53.209 117.263,54.209 117.5,55.5C 116.596,56.209 116.263,57.209 116.5,58.5C 114.401,60.9247 112.734,63.5914 111.5,66.5C 111.216,64.5853 111.549,62.9187 112.5,61.5C 117.029,51.4126 120.862,41.0793 124,30.5C 110.539,25.733 96.7054,24.3996 82.5,26.5C 97.4407,23.0951 112.107,24.2618 126.5,30C 125.202,32.7269 124.202,35.5602 123.5,38.5 Z"/></g>
<g><path style="opacity:0.925" fill="#787da9" d="M 123.5,42.5 C 122.312,47.2228 120.812,51.8895 119,56.5C 118.617,57.056 118.117,57.3893 117.5,57.5C 117.5,56.8333 117.5,56.1667 117.5,55.5C 118.404,54.791 118.737,53.791 118.5,52.5C 119.404,51.791 119.737,50.791 119.5,49.5C 120.404,48.791 120.737,47.791 120.5,46.5C 121.338,46.1583 121.672,45.4916 121.5,44.5C 122.167,43.8333 122.833,43.1667 123.5,42.5 Z"/></g>
<g><path style="opacity:0.769" fill="#9fa2b7" d="M 150.5,53.5 C 152.587,54.5846 153.92,56.2512 154.5,58.5C 152.413,57.4154 151.08,55.7488 150.5,53.5 Z"/></g>
<g><path style="opacity:1" fill="#0c0d32" d="M 112.5,61.5 C 111.549,62.9187 111.216,64.5853 111.5,66.5C 111.833,67.1667 112.167,67.8333 112.5,68.5C 112.194,71.3854 112.527,74.0521 113.5,76.5C 114.401,77.2905 115.068,78.2905 115.5,79.5C 115.5,81.5 115.5,83.5 115.5,85.5C 111.5,85.5 107.5,85.5 103.5,85.5C 102.662,85.8417 102.328,86.5084 102.5,87.5C 99.6424,87.4046 97.3091,86.2379 95.5,84C 107.653,83.8153 112.153,77.982 109,66.5C 107.532,64.1839 105.699,63.8506 103.5,65.5C 101.128,64.8966 98.9613,63.8966 97,62.5C 94.6836,63.6504 92.8502,65.3171 91.5,67.5C 89.795,66.4647 88.1284,66.4647 86.5,67.5C 85.7348,66.3881 84.7348,65.7214 83.5,65.5C 83.1667,65.5 82.8333,65.5 82.5,65.5C 82.5,64.5 82.5,63.5 82.5,62.5C 82.5,61.8333 82.5,61.1667 82.5,60.5C 84.8008,59.9396 87.1341,59.4396 89.5,59C 90.8782,57.2866 92.5448,55.9533 94.5,55C 101.924,53.5578 107.924,55.7244 112.5,61.5 Z"/></g>
<g><path style="opacity:1" fill="#62699e" d="M 52.5,48.5 C 48.5,53.1667 44.1667,57.5 39.5,61.5C 42.8333,56.1667 47.1667,51.8333 52.5,48.5 Z"/></g>
<g><path style="opacity:1" fill="#e3c755" d="M 69.5,61.5 C 67.139,61.3259 64.8056,60.9926 62.5,60.5C 63.7653,61.4793 65.0986,62.4793 66.5,63.5C 67.6664,65.1673 67.6664,66.834 66.5,68.5C 62.5874,69.5958 58.5874,69.7625 54.5,69C 53.944,68.6174 53.6107,68.1174 53.5,67.5C 53.5,66.1667 53.5,64.8333 53.5,63.5C 57.1716,62.9553 56.8383,62.6219 52.5,62.5C 51.7375,61.7321 50.7375,61.2321 49.5,61C 52.948,59.05 56.6147,57.55 60.5,56.5C 64.4195,57.4623 68.0862,58.9623 71.5,61C 70.9056,61.4643 70.2389,61.631 69.5,61.5 Z"/></g>
<g><path style="opacity:1" fill="#e9cc56" d="M 131.5,56.5 C 142.621,56.1074 145.954,60.9407 141.5,71C 131.972,74.7941 127.472,71.6274 128,61.5C 128.997,59.6769 130.164,58.0103 131.5,56.5 Z"/></g>
<g><path style="opacity:1" fill="#60533d" d="M 62.5,60.5 C 59.6644,60.7978 59.1644,60.1311 61,58.5C 61.7172,59.0442 62.2172,59.7109 62.5,60.5 Z"/></g>
<g><path style="opacity:0.886" fill="#7f83a3" d="M 154.5,58.5 C 156.914,59.9108 158.581,61.9108 159.5,64.5C 157.086,63.0892 155.419,61.0892 154.5,58.5 Z"/></g>
<g><path style="opacity:0.969" fill="#71759d" d="M 78.5,57.5 C 78.8333,57.5 79.1667,57.5 79.5,57.5C 79.9628,60.221 80.6295,62.8877 81.5,65.5C 79.3455,63.3826 78.3455,60.716 78.5,57.5 Z"/></g>
<g><path style="opacity:1" fill="#eaace2" d="M 102.5,87.5 C 102.5,88.5 102.5,89.5 102.5,90.5C 98.5,90.5 94.5,90.5 90.5,90.5C 90.5,88.8333 90.5,87.1667 90.5,85.5C 90.2606,83.5328 90.5939,81.6995 91.5,80C 90.4178,78.6703 89.7512,77.1703 89.5,75.5C 91.744,74.3884 91.744,72.8884 89.5,71C 90.305,69.8873 90.9717,68.7206 91.5,67.5C 92.8502,65.3171 94.6836,63.6504 97,62.5C 98.9613,63.8966 101.128,64.8966 103.5,65.5C 105.699,63.8506 107.532,64.1839 109,66.5C 112.153,77.982 107.653,83.8153 95.5,84C 97.3091,86.2379 99.6424,87.4046 102.5,87.5 Z"/></g>
<g><path style="opacity:1" fill="#534f4a" d="M 52.5,62.5 C 56.8383,62.6219 57.1716,62.9553 53.5,63.5C 53.5,64.8333 53.5,66.1667 53.5,67.5C 52.5489,66.0813 52.2155,64.4147 52.5,62.5 Z"/></g>
<g><path style="opacity:1" fill="#8184af" d="M 35.5,66.5 C 37.1392,67.4725 38.4726,68.8058 39.5,70.5C 37.9557,70.2969 36.6223,69.6302 35.5,68.5C 34.2267,67.7435 34.2267,67.0768 35.5,66.5 Z"/></g>
<g><path style="opacity:0.865" fill="#eaeaee" d="M 159.5,64.5 C 160.76,66.3671 162.427,67.7005 164.5,68.5C 163.833,69.5 163.167,70.5 162.5,71.5C 155.624,75.4371 149.291,80.1037 143.5,85.5C 141.5,85.5 140.5,86.5 140.5,88.5C 138.565,87.8505 136.565,87.5172 134.5,87.5C 134.5,87.1667 134.5,86.8333 134.5,86.5C 142.815,80.5249 151.148,74.5249 159.5,68.5C 160.292,67.3002 160.292,65.9669 159.5,64.5 Z"/></g>
<g><path style="opacity:0.03" fill="#f0f0f3" d="M 229.5,68.5 C 220.833,68.5 212.167,68.5 203.5,68.5C 203.5,69.5 203.5,70.5 203.5,71.5C 204.791,71.2627 205.791,71.596 206.5,72.5C 205.167,72.5 203.833,72.5 202.5,72.5C 202.5,70.8333 202.5,69.1667 202.5,67.5C 211.682,67.1734 220.682,67.5067 229.5,68.5 Z"/></g>
<g><path style="opacity:1" fill="#0e1437" d="M 229.5,68.5 C 230.084,71.0034 230.751,73.5034 231.5,76C 231.43,76.7648 231.097,77.2648 230.5,77.5C 229.041,77.5674 227.708,77.2341 226.5,76.5C 225.5,74.8333 224.167,73.5 222.5,72.5C 220.052,71.5269 217.385,71.1936 214.5,71.5C 214.182,76.0323 214.515,80.3656 215.5,84.5C 219.938,85.5749 221.938,83.9083 221.5,79.5C 222.833,79.5 224.167,79.5 225.5,79.5C 225.818,84.0323 225.485,88.3656 224.5,92.5C 223.222,92.2178 222.222,91.5511 221.5,90.5C 220.01,88.7202 218.01,88.0535 215.5,88.5C 215.5,92.8333 215.5,97.1667 215.5,101.5C 221.635,102.907 225.968,100.907 228.5,95.5C 229.5,95.5 230.5,95.5 231.5,95.5C 231.5,97.5 231.5,99.5 231.5,101.5C 231.5,101.833 231.5,102.167 231.5,102.5C 222.408,104.76 213.074,105.093 203.5,103.5C 203.863,102.817 204.196,102.15 204.5,101.5C 204.833,101.5 205.167,101.5 205.5,101.5C 206.827,97.049 207.494,92.2157 207.5,87C 207.499,81.9881 207.166,77.1547 206.5,72.5C 205.791,71.596 204.791,71.2627 203.5,71.5C 203.5,70.5 203.5,69.5 203.5,68.5C 212.167,68.5 220.833,68.5 229.5,68.5 Z"/></g>
<g><path style="opacity:1" fill="#222446" d="M 479.5,101.5 C 480.091,102.151 480.757,102.818 481.5,103.5C 476.208,104.495 470.875,104.828 465.5,104.5C 465.5,103.5 465.5,102.5 465.5,101.5C 467.346,101.778 468.68,101.111 469.5,99.5C 468.702,92.5496 468.202,85.5496 468,78.5C 465.375,84.8932 462.875,91.2265 460.5,97.5C 457.541,99.0602 454.874,98.7268 452.5,96.5C 450.263,90.9715 448.097,85.3048 446,79.5C 445.728,85.6908 445.228,91.8574 444.5,98C 444.387,99.6991 445.053,100.866 446.5,101.5C 447.091,102.151 447.757,102.818 448.5,103.5C 444.217,104.492 439.884,104.826 435.5,104.5C 435.5,103.5 435.5,102.5 435.5,101.5C 436.822,101.67 437.989,101.337 439,100.5C 439.921,91.1866 440.421,81.8533 440.5,72.5C 439.167,72.5 437.833,72.5 436.5,72.5C 436.5,70.8333 436.5,69.1667 436.5,67.5C 441.544,67.1725 446.544,67.5059 451.5,68.5C 453.715,75.3164 456.215,81.9831 459,88.5C 461.009,81.6395 463.509,74.9728 466.5,68.5C 471.12,67.5067 475.786,67.1734 480.5,67.5C 480.5,69.1667 480.5,70.8333 480.5,72.5C 479.167,72.5 477.833,72.5 476.5,72.5C 476.917,81.1673 477.417,89.8339 478,98.5C 478.232,99.7375 478.732,100.737 479.5,101.5 Z"/></g>
<g><path style="opacity:1" fill="#f9b7ed" d="M 50.5,100.5 C 49.5166,104.298 49.1832,108.298 49.5,112.5C 38.5,112.5 27.5,112.5 16.5,112.5C 16.5,109.167 16.5,105.833 16.5,102.5C 18.1468,91.2541 21.6468,80.5874 27,70.5C 27.6891,69.6433 28.5224,68.9767 29.5,68.5C 37.8072,74.3069 45.9738,80.3069 54,86.5C 52.5633,91.0001 51.3966,95.6667 50.5,100.5 Z"/></g>
<g><path style="opacity:1" fill="#786941" d="M 130.5,62.5 C 132.026,59.1074 134.693,57.7741 138.5,58.5C 138.5,59.5 138.5,60.5 138.5,61.5C 139.5,61.5 140.5,61.5 141.5,61.5C 141.5,63.5 141.5,65.5 141.5,67.5C 140.5,67.5 139.5,67.5 138.5,67.5C 138.5,68.5 138.5,69.5 138.5,70.5C 136.5,70.5 134.5,70.5 132.5,70.5C 132.5,69.5 132.5,68.5 132.5,67.5C 131.5,67.5 130.5,67.5 129.5,67.5C 129.216,65.5853 129.549,63.9187 130.5,62.5 Z"/></g>
<g><path style="opacity:1" fill="#f6d757" d="M 130.5,62.5 C 132.277,62.2137 133.944,61.5471 135.5,60.5C 137.056,61.5471 138.723,62.2137 140.5,62.5C 140.5,63.8333 140.5,65.1667 140.5,66.5C 139.5,66.5 138.5,66.5 137.5,66.5C 137.5,67.5 137.5,68.5 137.5,69.5C 136.5,69.5 135.5,69.5 134.5,69.5C 134.5,68.5 134.5,67.5 134.5,66.5C 133.167,66.5 131.833,66.5 130.5,66.5C 130.5,65.1667 130.5,63.8333 130.5,62.5 Z"/></g>
<g><path style="opacity:1" fill="#f1b2e7" d="M 179.5,112.5 C 168.833,112.5 158.167,112.5 147.5,112.5C 147.802,109.941 147.468,107.607 146.5,105.5C 146.558,99.174 144.891,93.3406 141.5,88C 142.381,87.2917 143.047,86.4584 143.5,85.5C 149.291,80.1037 155.624,75.4371 162.5,71.5C 164.463,70.3159 166.463,69.4826 168.5,69C 176.935,82.2376 180.601,96.7376 179.5,112.5 Z"/></g>
<g><path style="opacity:1" fill="#5b4f3d" d="M 62.5,60.5 C 64.8056,60.9926 67.139,61.3259 69.5,61.5C 68.7485,64.7473 68.2485,68.0806 68,71.5C 67.7679,70.2625 67.2679,69.2625 66.5,68.5C 67.6664,66.834 67.6664,65.1673 66.5,63.5C 65.0986,62.4793 63.7653,61.4793 62.5,60.5 Z"/></g>
<g><path style="opacity:0.999" fill="#0f1538" d="M 82.5,68.5 C 83.1667,68.5 83.8333,68.5 84.5,68.5C 85.7492,71.0903 87.4159,73.4236 89.5,75.5C 89.7512,77.1703 90.4178,78.6703 91.5,80C 90.5939,81.6995 90.2606,83.5328 90.5,85.5C 90.1667,85.5 89.8333,85.5 89.5,85.5C 86.1667,85.5 82.8333,85.5 79.5,85.5C 79.5,84.1667 79.5,82.8333 79.5,81.5C 81.4349,79.0309 82.7682,76.1976 83.5,73C 83.1639,71.9701 82.4972,71.4701 81.5,71.5C 82.1098,70.609 82.4431,69.609 82.5,68.5 Z"/></g>
<g><path style="opacity:1" fill="#a08fac" d="M 180.5,113.5 C 180.5,112.833 180.167,112.5 179.5,112.5C 180.601,96.7376 176.935,82.2376 168.5,69C 166.463,69.4826 164.463,70.3159 162.5,71.5C 163.167,70.5 163.833,69.5 164.5,68.5C 166.567,66.4533 168.4,66.4533 170,68.5C 178.433,82.5518 181.933,97.5518 180.5,113.5 Z"/></g>
<g><path style="opacity:0.094" fill="#d8d8de" d="M 112.5,68.5 C 112.833,68.5 113.167,68.5 113.5,68.5C 113.557,69.609 113.89,70.609 114.5,71.5C 113.549,72.9187 113.216,74.5853 113.5,76.5C 112.527,74.0521 112.194,71.3854 112.5,68.5 Z"/></g>
<g><path style="opacity:0.325" fill="#9c9bad" d="M 222.5,72.5 C 220.167,72.5 217.833,72.5 215.5,72.5C 215.5,76.5 215.5,80.5 215.5,84.5C 214.515,80.3656 214.182,76.0323 214.5,71.5C 217.385,71.1936 220.052,71.5269 222.5,72.5 Z"/></g>
<g><path style="opacity:1" fill="#9d76a7" d="M 83.5,65.5 C 84.7348,65.7214 85.7348,66.3881 86.5,67.5C 88.1284,66.4647 89.795,66.4647 91.5,67.5C 90.9717,68.7206 90.305,69.8873 89.5,71C 91.744,72.8884 91.744,74.3884 89.5,75.5C 87.4159,73.4236 85.7492,71.0903 84.5,68.5C 84.4431,67.391 84.1098,66.391 83.5,65.5 Z"/></g>
<g><path style="opacity:1" fill="#262849" d="M 603.5,80.5 C 603.607,78.6214 603.107,78.2881 602,79.5C 601.26,80.7494 601.427,81.7494 602.5,82.5C 604.972,86.3726 604.639,90.2059 601.5,94C 596.27,96.6363 590.937,97.9696 585.5,98C 591.722,99.1424 598.055,100.142 604.5,101C 608.895,107.025 607.895,112.025 601.5,116C 595.569,117.471 589.569,117.804 583.5,117C 576.351,113.768 575.684,109.435 581.5,104C 578.941,101.075 578.941,98.0747 581.5,95C 578.22,90.8184 577.72,86.3184 580,81.5C 581.319,79.5125 583.152,78.3459 585.5,78C 589.755,77.2039 593.921,77.3705 598,78.5C 600.136,74.6724 603.303,73.1724 607.5,74C 610.598,79.3661 609.265,81.5327 603.5,80.5 Z M 589.5,81.5 C 592.238,80.9648 594.072,81.9648 595,84.5C 595.782,87.2569 595.282,89.7569 593.5,92C 590.783,93.033 588.949,92.1997 588,89.5C 587.109,86.5024 587.609,83.8357 589.5,81.5 Z M 587.5,106.5 C 590.85,106.335 594.183,106.502 597.5,107C 598.584,109.19 597.917,110.856 595.5,112C 592.833,112.667 590.167,112.667 587.5,112C 586.248,110.172 586.248,108.339 587.5,106.5 Z"/></g>
<g><path style="opacity:0.855" fill="#898dae" d="M 123.5,76.5 C 126.833,77.8333 129.167,80.1667 130.5,83.5C 127.833,81.5 125.5,79.1667 123.5,76.5 Z"/></g>
<g><path style="opacity:0.314" fill="#c2c1cb" d="M 226.5,76.5 C 227.708,77.2341 229.041,77.5674 230.5,77.5C 230.083,78.1239 229.416,78.4573 228.5,78.5C 227.287,78.2528 226.62,77.5862 226.5,76.5 Z"/></g>
<g><path style="opacity:0.243" fill="#c2c2cc" d="M 234.5,78.5 C 239.64,77.5119 244.974,77.1786 250.5,77.5C 250.768,79.099 250.434,80.4324 249.5,81.5C 249.5,80.5 249.5,79.5 249.5,78.5C 244.5,78.5 239.5,78.5 234.5,78.5 Z"/></g>
<g><path style="opacity:0.247" fill="#bdbdc8" d="M 264.5,78.5 C 260.833,78.5 257.167,78.5 253.5,78.5C 253.5,79.5 253.5,80.5 253.5,81.5C 252.566,80.4324 252.232,79.099 252.5,77.5C 256.702,77.1832 260.702,77.5166 264.5,78.5 Z"/></g>
<g><path style="opacity:0.451" fill="#9b9aac" d="M 306.5,80.5 C 306.217,81.2891 305.717,81.9558 305,82.5C 304.51,81.2068 304.343,79.8734 304.5,78.5C 301.167,78.5 297.833,78.5 294.5,78.5C 294.527,80.1993 295.194,81.5326 296.5,82.5C 292.516,82.5277 291.516,80.861 293.5,77.5C 297.5,77.5 301.5,77.5 305.5,77.5C 305.263,78.791 305.596,79.791 306.5,80.5 Z"/></g>
<g><path style="opacity:1" fill="#202244" d="M 234.5,78.5 C 239.5,78.5 244.5,78.5 249.5,78.5C 249.5,79.5 249.5,80.5 249.5,81.5C 248.13,83.7073 248.797,85.374 251.5,86.5C 253.677,85.1853 254.344,83.5187 253.5,81.5C 253.5,80.5 253.5,79.5 253.5,78.5C 257.167,78.5 260.833,78.5 264.5,78.5C 264.684,81.3213 263.351,82.9879 260.5,83.5C 258.31,85.8557 256.31,88.3557 254.5,91C 257.313,94.9805 260.647,98.4805 264.5,101.5C 265.429,102.689 265.762,104.022 265.5,105.5C 260.167,105.5 254.833,105.5 249.5,105.5C 249.328,103.508 249.995,101.842 251.5,100.5C 248.356,94.9723 246.022,95.3056 244.5,101.5C 244.804,102.15 245.137,102.817 245.5,103.5C 241.893,104.489 238.226,104.823 234.5,104.5C 234.5,103.5 234.5,102.5 234.5,101.5C 238.389,99.2856 241.723,96.2856 244.5,92.5C 241.775,87.9451 238.275,84.2785 234,81.5C 233.26,80.2506 233.427,79.2506 234.5,78.5 Z"/></g>
<g><path style="opacity:1" fill="#202244" d="M 290.5,92.5 C 285.167,92.5 279.833,92.5 274.5,92.5C 274.232,94.099 274.566,95.4324 275.5,96.5C 279.8,101.496 284.3,101.496 289,96.5C 292.348,99.1541 292.182,101.654 288.5,104C 272.209,109.434 265.042,103.601 267,86.5C 271.329,77.5374 278.163,75.0374 287.5,79C 291.315,82.8754 292.315,87.3754 290.5,92.5 Z M 278.5,81.5 C 281.656,81.5291 283.322,83.1957 283.5,86.5C 283.291,87.086 282.957,87.586 282.5,88C 280.19,88.4966 277.857,88.6633 275.5,88.5C 275.166,85.509 276.166,83.1757 278.5,81.5 Z"/></g>
<g><path style="opacity:1" fill="#1e2043" d="M 322.5,81.5 C 323.275,86.7968 323.608,92.1301 323.5,97.5C 320.867,105.28 315.533,107.947 307.5,105.5C 306.526,107.743 306.192,110.076 306.5,112.5C 307.833,112.5 309.167,112.5 310.5,112.5C 310.5,113.833 310.5,115.167 310.5,116.5C 305.167,116.5 299.833,116.5 294.5,116.5C 294.527,114.801 295.194,113.467 296.5,112.5C 297.833,102.5 297.833,92.5 296.5,82.5C 295.194,81.5326 294.527,80.1993 294.5,78.5C 297.833,78.5 301.167,78.5 304.5,78.5C 304.343,79.8734 304.51,81.2068 305,82.5C 305.717,81.9558 306.217,81.2891 306.5,80.5C 308.056,78.0118 310.389,77.0118 313.5,77.5C 317.424,76.9651 320.424,78.2985 322.5,81.5 Z M 308.5,83.5 C 311.547,82.8554 313.713,83.8554 315,86.5C 316.024,91.0984 315.524,95.4317 313.5,99.5C 311.257,100.474 308.924,100.808 306.5,100.5C 306.334,95.4889 306.501,90.4889 307,85.5C 307.717,84.9558 308.217,84.2891 308.5,83.5 Z"/></g>
<g><path style="opacity:1" fill="#12173a" d="M 338.5,79.5 C 338.345,82.8531 339.012,83.1864 340.5,80.5C 340.577,79.2502 341.244,78.4169 342.5,78C 346.9,77.0223 351.067,77.5223 355,79.5C 356.425,86.3846 356.925,93.3846 356.5,100.5C 357.007,101.859 358.007,102.859 359.5,103.5C 354.833,104.833 350.167,104.833 345.5,103.5C 345.863,102.817 346.196,102.15 346.5,101.5C 347.117,101.389 347.617,101.056 348,100.5C 348.499,96.1794 348.666,91.8461 348.5,87.5C 348.843,85.5168 348.176,84.1834 346.5,83.5C 343.167,83.0268 341,84.3601 340,87.5C 339.333,91.8333 339.333,96.1667 340,100.5C 340.671,101.252 341.504,101.586 342.5,101.5C 342.5,102.5 342.5,103.5 342.5,104.5C 337.786,104.827 333.12,104.493 328.5,103.5C 329.993,102.859 330.993,101.859 331.5,100.5C 331.789,94.4093 331.455,88.4093 330.5,82.5C 329.791,81.596 328.791,81.2627 327.5,81.5C 327.5,80.5 327.5,79.5 327.5,78.5C 329.134,77.8389 330.967,77.5056 333,77.5C 335.295,77.5465 337.129,78.2132 338.5,79.5 Z"/></g>
<g><path style="opacity:1" fill="#252749" d="M 383.5,79.5 C 384.01,82.3878 383.344,84.7211 381.5,86.5C 379.403,84.4266 376.903,82.76 374,81.5C 372.379,81.7247 371.212,82.558 370.5,84C 375.078,86.3085 379.578,88.8085 384,91.5C 386.869,98.2372 385.036,103.071 378.5,106C 374.797,106.579 371.131,106.412 367.5,105.5C 366.5,105.5 365.5,105.5 364.5,105.5C 364.802,102.941 364.468,100.607 363.5,98.5C 363.418,96.7483 364.251,95.7483 366,95.5C 367.837,97.6126 370.004,99.4459 372.5,101C 376.897,102.106 378.23,100.606 376.5,96.5C 371.697,95.7373 367.531,93.7373 364,90.5C 362.086,80.7464 366.086,76.413 376,77.5C 378.929,77.5248 381.429,78.1914 383.5,79.5 Z"/></g>
<g><path style="opacity:1" fill="#202244" d="M 411.5,82.5 C 411.5,85.8333 411.5,89.1667 411.5,92.5C 406.167,92.5 400.833,92.5 395.5,92.5C 395.263,93.791 395.596,94.791 396.5,95.5C 400.514,101.654 405.014,101.987 410,96.5C 413.348,99.1541 413.182,101.654 409.5,104C 397.039,109.576 389.706,105.743 387.5,92.5C 388.388,79.7859 395.054,74.9526 407.5,78C 409.751,78.7475 411.084,80.2475 411.5,82.5 Z M 399.5,81.5 C 403.8,81.8153 405.467,84.1486 404.5,88.5C 401.833,88.5 399.167,88.5 396.5,88.5C 396.688,85.7939 397.688,83.4605 399.5,81.5 Z"/></g>
<g><path style="opacity:1" fill="#212346" d="M 493.5,90.5 C 495.833,90.5 498.167,90.5 500.5,90.5C 500.806,87.6146 500.473,84.9479 499.5,82.5C 497.863,81.7822 496.197,81.6155 494.5,82C 494.531,88.1225 491.865,89.9559 486.5,87.5C 486.448,85.0971 486.781,82.7638 487.5,80.5C 490.293,78.0795 493.626,77.0795 497.5,77.5C 503.921,76.4508 507.421,79.1175 508,85.5C 508.333,90.5 508.667,95.5 509,100.5C 515.42,103.124 514.753,105.124 507,106.5C 504.594,106.297 502.594,105.297 501,103.5C 496.856,106.772 492.356,107.272 487.5,105C 484.867,100.8 484.867,96.6331 487.5,92.5C 489.323,91.2528 491.323,90.5861 493.5,90.5 Z M 495.5,94.5 C 496.833,94.5 498.167,94.5 499.5,94.5C 499.5,96.1667 499.5,97.8333 499.5,99.5C 494.052,100.919 492.718,99.2519 495.5,94.5 Z"/></g>
<g><path style="opacity:1" fill="#13183b" d="M 543.5,100.5 C 544.007,101.859 545.007,102.859 546.5,103.5C 541.833,104.833 537.167,104.833 532.5,103.5C 533.993,102.859 534.993,101.859 535.5,100.5C 535.5,96.1667 535.5,91.8333 535.5,87.5C 535.843,85.5168 535.176,84.1834 533.5,83.5C 530.167,83.0268 528,84.3601 527,87.5C 526.333,91.8333 526.333,96.1667 527,100.5C 527.671,101.252 528.504,101.586 529.5,101.5C 529.5,102.5 529.5,103.5 529.5,104.5C 524.5,104.5 519.5,104.5 514.5,104.5C 514.5,103.5 514.5,102.5 514.5,101.5C 515.822,101.67 516.989,101.337 518,100.5C 518.788,94.418 518.621,88.418 517.5,82.5C 516.791,81.596 515.791,81.2627 514.5,81.5C 514.5,80.5 514.5,79.5 514.5,78.5C 517.962,77.5184 521.629,77.185 525.5,77.5C 525.281,78.675 525.614,79.675 526.5,80.5C 528.586,78.0811 531.253,77.0811 534.5,77.5C 538.325,76.83 541.158,78.1634 543,81.5C 543.5,87.8246 543.666,94.1579 543.5,100.5 Z"/></g>
<g><path style="opacity:1" fill="#252648" d="M 555.5,77.5 C 559.846,77.3343 564.179,77.501 568.5,78C 569.333,78.8333 570.167,79.6667 571,80.5C 572.255,87.0594 572.922,93.726 573,100.5C 574.113,101.711 575.28,101.711 576.5,100.5C 577.916,104.691 576.249,106.691 571.5,106.5C 569.063,106.402 567.063,105.402 565.5,103.5C 560.631,107.461 555.798,107.461 551,103.5C 548.298,98.1799 549.465,94.0133 554.5,91C 557.757,89.9571 561.09,89.4571 564.5,89.5C 565.225,85.6328 563.892,82.9661 560.5,81.5C 557.671,81.8239 557.004,83.1572 558.5,85.5C 556.056,89.0215 553.222,89.3548 550,86.5C 549.931,82.3898 551.764,79.3898 555.5,77.5 Z M 563.5,93.5 C 565.581,98.3157 563.914,100.649 558.5,100.5C 557.574,96.1138 559.241,93.7805 563.5,93.5 Z"/></g>
<g><path style="opacity:1" fill="#1d2042" d="M 634.5,82.5 C 634.5,85.8333 634.5,89.1667 634.5,92.5C 629.125,92.1718 623.792,92.5052 618.5,93.5C 618.624,94.1067 618.957,94.44 619.5,94.5C 623.077,101.2 627.577,101.866 633,96.5C 636.348,99.1541 636.182,101.654 632.5,104C 620.068,109.58 612.735,105.746 610.5,92.5C 611.368,79.8089 618.035,74.9755 630.5,78C 632.751,78.7475 634.084,80.2475 634.5,82.5 Z M 627.5,83.5 C 627.5,85.1667 627.5,86.8333 627.5,88.5C 624.615,88.8064 621.948,88.4731 619.5,87.5C 620.408,81.8483 623.075,80.515 627.5,83.5 Z"/></g>
<g><path style="opacity:1" fill="#1e2143" d="M 652.5,101.5 C 653.398,102.158 654.398,102.824 655.5,103.5C 650.167,104.833 644.833,104.833 639.5,103.5C 639.863,102.817 640.196,102.15 640.5,101.5C 641.117,101.389 641.617,101.056 642,100.5C 642.667,94.8333 642.667,89.1667 642,83.5C 640.989,82.6634 639.822,82.33 638.5,82.5C 638.5,80.8333 638.5,79.1667 638.5,77.5C 642.167,77.5 645.833,77.5 649.5,77.5C 649.351,78.552 649.517,79.552 650,80.5C 653.681,77.6403 657.848,76.8069 662.5,78C 664.478,80.4973 664.978,83.3307 664,86.5C 661.333,89.1667 658.667,89.1667 656,86.5C 655.316,85.2161 655.483,84.0495 656.5,83C 654.924,82.6124 653.591,83.1124 652.5,84.5C 650.501,89.6473 650.001,94.9806 651,100.5C 651.383,101.056 651.883,101.389 652.5,101.5 Z"/></g>
<g><path style="opacity:0.055" fill="#c1c1ca" d="M 603.5,80.5 C 602.662,80.8417 602.328,81.5084 602.5,82.5C 601.427,81.7494 601.26,80.7494 602,79.5C 603.107,78.2881 603.607,78.6214 603.5,80.5 Z"/></g>
<g><path style="opacity:0.498" fill="#828297" d="M 206.5,72.5 C 207.166,77.1547 207.499,81.9881 207.5,87C 207.494,92.2157 206.827,97.049 205.5,101.5C 206.473,91.9162 206.806,82.2496 206.5,72.5 Z"/></g>
<g><path style="opacity:0.067" fill="#d1d1d7" d="M 338.5,79.5 C 339.167,79.8333 339.833,80.1667 340.5,80.5C 339.012,83.1864 338.345,82.8531 338.5,79.5 Z"/></g>
<g><path style="opacity:0.129" fill="#d6d6de" d="M 327.5,78.5 C 327.5,79.5 327.5,80.5 327.5,81.5C 328.791,81.2627 329.791,81.596 330.5,82.5C 329.167,82.5 327.833,82.5 326.5,82.5C 326.232,80.901 326.566,79.5676 327.5,78.5 Z"/></g>
<g><path style="opacity:0.145" fill="#d6d6dd" d="M 514.5,78.5 C 514.5,79.5 514.5,80.5 514.5,81.5C 515.791,81.2627 516.791,81.596 517.5,82.5C 516.167,82.5 514.833,82.5 513.5,82.5C 513.232,80.901 513.566,79.5676 514.5,78.5 Z"/></g>
<g><path style="opacity:0.212" fill="#d3d3db" d="M 383.5,79.5 C 384.473,81.9479 384.806,84.6146 384.5,87.5C 383.209,87.7373 382.209,87.404 381.5,86.5C 383.344,84.7211 384.01,82.3878 383.5,79.5 Z"/></g>
<g><path style="opacity:0.698" fill="#88879d" d="M 487.5,80.5 C 486.781,82.7638 486.448,85.0971 486.5,87.5C 485.853,86.7261 485.52,85.7261 485.5,84.5C 485.34,82.6455 486.007,81.3121 487.5,80.5 Z"/></g>
<g><path style="opacity:0.197" fill="#c8c8d1" d="M 79.5,81.5 C 79.5,82.8333 79.5,84.1667 79.5,85.5C 82.8333,85.5 86.1667,85.5 89.5,85.5C 89.5,85.8333 89.5,86.1667 89.5,86.5C 85.8333,86.5 82.1667,86.5 78.5,86.5C 78.2155,84.5853 78.5489,82.9187 79.5,81.5 Z"/></g>
<g><path style="opacity:0.198" fill="#c4c4cd" d="M 115.5,79.5 C 116.468,81.6074 116.802,83.9407 116.5,86.5C 112.167,86.5 107.833,86.5 103.5,86.5C 103.5,86.1667 103.5,85.8333 103.5,85.5C 107.5,85.5 111.5,85.5 115.5,85.5C 115.5,83.5 115.5,81.5 115.5,79.5 Z"/></g>
<g><path style="opacity:0.843" fill="#757aa7" d="M 130.5,83.5 C 132.141,84.147 133.474,85.147 134.5,86.5C 134.5,86.8333 134.5,87.1667 134.5,87.5C 132.167,87.1667 130.833,85.8333 130.5,83.5 Z"/></g>
<g><path style="opacity:1" fill="#e8cb55" d="M 156.5,96.5 C 157.139,95.9032 157.472,95.0698 157.5,94C 157.316,92.6244 156.649,91.7911 155.5,91.5C 153.587,85.9151 155.42,84.2484 161,86.5C 159.735,92.9565 159.235,99.6231 159.5,106.5C 158.5,106.5 157.5,106.5 156.5,106.5C 156.5,103.167 156.5,99.8333 156.5,96.5 Z"/></g>
<g><path style="opacity:1" fill="#534157" d="M 163.5,85.5 C 165.607,84.5318 167.941,84.1984 170.5,84.5C 170.795,86.7354 170.461,88.7354 169.5,90.5C 169.508,84.7924 169.008,84.4591 168,89.5C 167.458,84.2792 166.624,84.2792 165.5,89.5C 164.828,88.0508 164.161,86.7175 163.5,85.5 Z"/></g>
<g><path style="opacity:1" fill="#a090ad" d="M 50.5,102.5 C 50.5,101.833 50.5,101.167 50.5,100.5C 51.3966,95.6667 52.5633,91.0001 54,86.5C 45.9738,80.3069 37.8072,74.3069 29.5,68.5C 28.5224,68.9767 27.6891,69.6433 27,70.5C 21.6468,80.5874 18.1468,91.2541 16.5,102.5C 16.1667,102.5 15.8333,102.5 15.5,102.5C 16.1869,88.9237 20.6869,76.9237 29,66.5C 38.4573,72.9592 47.624,79.7926 56.5,87C 53.7872,91.9847 51.7872,97.1514 50.5,102.5 Z"/></g>
<g><path style="opacity:0.012" fill="#c4c3cf" d="M 346.5,83.5 C 348.176,84.1834 348.843,85.5168 348.5,87.5C 347.655,86.3285 346.989,84.9952 346.5,83.5 Z"/></g>
<g><path style="opacity:0.012" fill="#c5c4cf" d="M 533.5,83.5 C 535.176,84.1834 535.843,85.5168 535.5,87.5C 534.655,86.3285 533.989,84.9952 533.5,83.5 Z"/></g>
<g><path style="opacity:0.773" fill="#a69fb4" d="M 143.5,85.5 C 143.047,86.4584 142.381,87.2917 141.5,88C 144.891,93.3406 146.558,99.174 146.5,105.5C 146.5,108.167 146.5,110.833 146.5,113.5C 146.296,104.831 144.296,96.4975 140.5,88.5C 140.5,86.5 141.5,85.5 143.5,85.5 Z"/></g>
<g><path style="opacity:0.698" fill="#666580" d="M 627.5,83.5 C 628.461,85.2646 628.795,87.2646 628.5,89.5C 625.102,89.8204 621.768,89.487 618.5,88.5C 618.624,87.8933 618.957,87.56 619.5,87.5C 621.948,88.4731 624.615,88.8064 627.5,88.5C 627.5,86.8333 627.5,85.1667 627.5,83.5 Z"/></g>
<g><path style="opacity:1" fill="#ecce56" d="M 28.5,88.5 C 28.5,88.8333 28.5,89.1667 28.5,89.5C 27.596,90.209 27.2627,91.209 27.5,92.5C 26.9569,92.56 26.6236,92.8933 26.5,93.5C 28.396,94.4656 30.396,94.7989 32.5,94.5C 32.5,96.1667 32.5,97.8333 32.5,99.5C 30.088,99.6695 27.9214,99.0028 26,97.5C 24.5936,98.4138 23.0936,99.0805 21.5,99.5C 22.6988,95.9014 23.6988,92.2347 24.5,88.5C 25.8333,88.5 27.1667,88.5 28.5,88.5 Z"/></g>
<g><path style="opacity:1" fill="#0c0c2d" d="M 28.5,89.5 C 29.8333,89.5 31.1667,89.5 32.5,89.5C 32.5,90.8333 32.5,92.1667 32.5,93.5C 30.5853,93.7845 28.9187,93.4511 27.5,92.5C 27.2627,91.209 27.596,90.209 28.5,89.5 Z"/></g>
<g><path style="opacity:1" fill="#0d0e31" d="M 36.5,88.5 C 39.6743,89.0102 42.0077,90.6769 43.5,93.5C 40.812,93.8342 38.4786,93.1675 36.5,91.5C 36.5,90.5 36.5,89.5 36.5,88.5 Z"/></g>
<g><path style="opacity:0.757" fill="#797890" d="M 322.5,81.5 C 324.006,84.356 324.672,87.5226 324.5,91C 324.496,93.3608 324.163,95.5274 323.5,97.5C 323.608,92.1301 323.275,86.7968 322.5,81.5 Z"/></g>
<g><path style="opacity:0.353" fill="#bcbcc8" d="M 499.5,82.5 C 500.473,84.9479 500.806,87.6146 500.5,90.5C 498.167,90.5 495.833,90.5 493.5,90.5C 495.265,89.5386 497.265,89.2053 499.5,89.5C 499.5,87.1667 499.5,84.8333 499.5,82.5 Z"/></g>
<g><path style="opacity:1" fill="#6c67a0" d="M 103.5,85.5 C 103.5,85.8333 103.5,86.1667 103.5,86.5C 103.414,87.4959 103.748,88.3292 104.5,89C 108.035,89.6633 111.035,91.1633 113.5,93.5C 105.788,92.0239 98.121,91.0239 90.5,90.5C 94.5,90.5 98.5,90.5 102.5,90.5C 102.5,89.5 102.5,88.5 102.5,87.5C 102.328,86.5084 102.662,85.8417 103.5,85.5 Z"/></g>
<g><path style="opacity:1" fill="#0965e6" d="M 90.5,90.5 C 98.121,91.0239 105.788,92.0239 113.5,93.5C 117.723,94.9308 119.723,97.9308 119.5,102.5C 119.41,105.152 120.076,107.485 121.5,109.5C 122.434,110.568 122.768,111.901 122.5,113.5C 122.575,116.206 122.908,118.873 123.5,121.5C 120.289,121.988 117.456,121.321 115,119.5C 114.29,120.973 113.124,121.64 111.5,121.5C 111.5,120.167 111.5,118.833 111.5,117.5C 110.022,117.762 108.689,117.429 107.5,116.5C 106.949,113.944 105.949,111.611 104.5,109.5C 104.124,112.373 104.124,115.373 104.5,118.5C 102.938,118.733 101.605,119.4 100.5,120.5C 94.8333,120.5 89.1667,120.5 83.5,120.5C 83.6655,116.486 83.4988,112.486 83,108.5C 82.501,112.821 82.3343,117.154 82.5,121.5C 89.2971,122.318 91.2971,125.984 88.5,132.5C 83.5,132.5 78.5,132.5 73.5,132.5C 73.3259,130.139 72.9926,127.806 72.5,125.5C 72.2895,116.8 72.6228,108.133 73.5,99.5C 75.5,98.1667 77.1667,96.5 78.5,94.5C 82.6828,93.7433 86.6828,92.41 90.5,90.5 Z"/></g>
<g><path style="opacity:0.133" fill="#dedee4" d="M 221.5,90.5 C 222.222,91.5511 223.222,92.2178 224.5,92.5C 223.791,93.404 222.791,93.7373 221.5,93.5C 221.5,92.5 221.5,91.5 221.5,90.5 Z"/></g>
<g><path style="opacity:1" fill="#676aa1" d="M 89.5,85.5 C 89.8333,85.5 90.1667,85.5 90.5,85.5C 90.5,87.1667 90.5,88.8333 90.5,90.5C 86.6828,92.41 82.6828,93.7433 78.5,94.5C 81.1598,92.5033 84.1598,91.0033 87.5,90C 88.8228,89.1841 89.4894,88.0174 89.5,86.5C 89.5,86.1667 89.5,85.8333 89.5,85.5 Z"/></g>
<g><path style="opacity:0.514" fill="#88889c" d="M 290.5,92.5 C 285.695,93.4872 280.695,93.8205 275.5,93.5C 275.5,94.5 275.5,95.5 275.5,96.5C 274.566,95.4324 274.232,94.099 274.5,92.5C 279.833,92.5 285.167,92.5 290.5,92.5 Z"/></g>
<g><path style="opacity:0.517" fill="#7f7f94" d="M 411.5,82.5 C 412.482,85.9619 412.815,89.6286 412.5,93.5C 406.729,92.8872 401.396,93.5539 396.5,95.5C 395.596,94.791 395.263,93.791 395.5,92.5C 400.833,92.5 406.167,92.5 411.5,92.5C 411.5,89.1667 411.5,85.8333 411.5,82.5 Z"/></g>
<g><path style="opacity:0.519" fill="#7d7d93" d="M 634.5,82.5 C 635.482,85.9619 635.815,89.6286 635.5,93.5C 629.974,93.1786 624.64,93.5119 619.5,94.5C 618.957,94.44 618.624,94.1067 618.5,93.5C 623.792,92.5052 629.125,92.1718 634.5,92.5C 634.5,89.1667 634.5,85.8333 634.5,82.5 Z"/></g>
<g><path style="opacity:1" fill="#6c5f40" d="M 28.5,89.5 C 28.5,89.1667 28.5,88.8333 28.5,88.5C 31.1667,88.5 33.8333,88.5 36.5,88.5C 36.5,89.5 36.5,90.5 36.5,91.5C 38.4786,93.1675 40.812,93.8342 43.5,93.5C 44.1667,93.5 44.5,93.8333 44.5,94.5C 43.1266,94.3433 41.7932,94.51 40.5,95C 41.5981,95.7697 41.5981,96.603 40.5,97.5C 40.5,98.8333 39.8333,99.5 38.5,99.5C 40.0813,95.0766 38.4146,93.4099 33.5,94.5C 33.5,96.1667 33.5,97.8333 33.5,99.5C 33.1667,99.5 32.8333,99.5 32.5,99.5C 32.5,97.8333 32.5,96.1667 32.5,94.5C 30.396,94.7989 28.396,94.4656 26.5,93.5C 26.6236,92.8933 26.9569,92.56 27.5,92.5C 28.9187,93.4511 30.5853,93.7845 32.5,93.5C 32.5,92.1667 32.5,90.8333 32.5,89.5C 31.1667,89.5 29.8333,89.5 28.5,89.5 Z"/></g>
<g><path style="opacity:1" fill="#04042c" d="M 36.5,91.5 C 36.1788,93.0481 35.1788,93.7148 33.5,93.5C 33.334,89.6266 34.334,88.9599 36.5,91.5 Z"/></g>
<g><path style="opacity:1" fill="#433741" d="M 155.5,91.5 C 156.649,91.7911 157.316,92.6244 157.5,94C 157.472,95.0698 157.139,95.9032 156.5,96.5C 156.634,94.7085 156.301,93.0418 155.5,91.5 Z"/></g>
<g><path style="opacity:1" fill="#f6d657" d="M 38.5,99.5 C 36.8333,99.5 35.1667,99.5 33.5,99.5C 33.5,97.8333 33.5,96.1667 33.5,94.5C 38.4146,93.4099 40.0813,95.0766 38.5,99.5 Z"/></g>
<g><path style="opacity:1" fill="#eacd56" d="M 44.5,94.5 C 44.8308,96.3224 45.4975,97.9891 46.5,99.5C 44.6854,98.3702 42.6854,97.7036 40.5,97.5C 41.5981,96.603 41.5981,95.7697 40.5,95C 41.7932,94.51 43.1266,94.3433 44.5,94.5 Z"/></g>
<g><path style="opacity:1" fill="#e7ca55" d="M 163.5,85.5 C 164.161,86.7175 164.828,88.0508 165.5,89.5C 166.624,84.2792 167.458,84.2792 168,89.5C 169.008,84.4591 169.508,84.7924 169.5,90.5C 168.007,91.3121 167.34,92.6455 167.5,94.5C 168.274,98.4649 168.607,102.465 168.5,106.5C 167.5,106.5 166.5,106.5 165.5,106.5C 165.5,104.167 165.5,101.833 165.5,99.5C 165.642,94.6257 164.976,89.959 163.5,85.5 Z"/></g>
<g><path style="opacity:0.843" fill="#747a9e" d="M 78.5,94.5 C 77.1667,96.5 75.5,98.1667 73.5,99.5C 74.1667,96.8333 75.8333,95.1667 78.5,94.5 Z"/></g>
<g><path style="opacity:0.067" fill="#dadadf" d="M 495.5,94.5 C 496.919,93.5489 498.585,93.2155 500.5,93.5C 500.795,95.7354 500.461,97.7354 499.5,99.5C 499.5,97.8333 499.5,96.1667 499.5,94.5C 498.167,94.5 496.833,94.5 495.5,94.5 Z"/></g>
<g><path style="opacity:1" fill="#61514a" d="M 44.5,94.5 C 47.1917,95.5905 47.8584,97.2572 46.5,99.5C 45.4975,97.9891 44.8308,96.3224 44.5,94.5 Z"/></g>
<g><path style="opacity:0.294" fill="#b4b4c2" d="M 228.5,95.5 C 229.568,94.5655 230.901,94.2322 232.5,94.5C 232.802,97.0593 232.468,99.3926 231.5,101.5C 231.5,99.5 231.5,97.5 231.5,95.5C 230.5,95.5 229.5,95.5 228.5,95.5 Z"/></g>
<g><path style="opacity:0.618" fill="#7e7e94" d="M 452.5,96.5 C 454.874,98.7268 457.541,99.0602 460.5,97.5C 458.365,99.369 455.698,100.036 452.5,99.5C 452.5,98.5 452.5,97.5 452.5,96.5 Z"/></g>
<g><path style="opacity:1" fill="#36294c" d="M 32.5,99.5 C 32.8333,99.5 33.1667,99.5 33.5,99.5C 35.1667,99.5 36.8333,99.5 38.5,99.5C 39.8333,99.5 40.5,98.8333 40.5,97.5C 42.6854,97.7036 44.6854,98.3702 46.5,99.5C 45.1664,100.652 43.6664,101.652 42,102.5C 36.6667,99.8333 31.3333,99.8333 26,102.5C 24.3336,101.652 22.8336,100.652 21.5,99.5C 23.0936,99.0805 24.5936,98.4138 26,97.5C 27.9214,99.0028 30.088,99.6695 32.5,99.5 Z"/></g>
<g><path style="opacity:1" fill="#917f4e" d="M 165.5,99.5 C 165.5,101.833 165.5,104.167 165.5,106.5C 166.5,106.5 167.5,106.5 168.5,106.5C 167.432,107.434 166.099,107.768 164.5,107.5C 164.194,104.615 164.527,101.948 165.5,99.5 Z"/></g>
<g><path style="opacity:0.235" fill="#adadbb" d="M 363.5,98.5 C 364.468,100.607 364.802,102.941 364.5,105.5C 365.5,105.5 366.5,105.5 367.5,105.5C 366.432,106.434 365.099,106.768 363.5,106.5C 363.5,103.833 363.5,101.167 363.5,98.5 Z"/></g>
<g><path style="opacity:0.684" fill="#5e5e79" d="M 204.5,101.5 C 204.196,102.15 203.863,102.817 203.5,103.5C 213.074,105.093 222.408,104.76 231.5,102.5C 231.5,103.5 231.5,104.5 231.5,105.5C 221.833,105.5 212.167,105.5 202.5,105.5C 202.157,103.517 202.824,102.183 204.5,101.5 Z"/></g>
<g><path style="opacity:0.694" fill="#7d7d95" d="M 234.5,101.5 C 234.5,102.5 234.5,103.5 234.5,104.5C 238.226,104.823 241.893,104.489 245.5,103.5C 245.137,102.817 244.804,102.15 244.5,101.5C 246.176,102.183 246.843,103.517 246.5,105.5C 242.167,105.5 237.833,105.5 233.5,105.5C 233.232,103.901 233.566,102.568 234.5,101.5 Z"/></g>
<g><path style="opacity:0.682" fill="#676681" d="M 331.5,100.5 C 330.993,101.859 329.993,102.859 328.5,103.5C 333.12,104.493 337.786,104.827 342.5,104.5C 342.5,103.5 342.5,102.5 342.5,101.5C 343.434,102.568 343.768,103.901 343.5,105.5C 338.167,105.5 332.833,105.5 327.5,105.5C 327.5,104.167 327.5,102.833 327.5,101.5C 328.959,101.567 330.292,101.234 331.5,100.5 Z"/></g>
<g><path style="opacity:0.688" fill="#6a6a83" d="M 356.5,100.5 C 357.708,101.234 359.041,101.567 360.5,101.5C 360.5,102.833 360.5,104.167 360.5,105.5C 355.167,105.5 349.833,105.5 344.5,105.5C 344.157,103.517 344.824,102.183 346.5,101.5C 346.196,102.15 345.863,102.817 345.5,103.5C 350.167,104.833 354.833,104.833 359.5,103.5C 358.007,102.859 357.007,101.859 356.5,100.5 Z"/></g>
<g><path style="opacity:0.682" fill="#73738b" d="M 435.5,101.5 C 435.5,102.5 435.5,103.5 435.5,104.5C 439.884,104.826 444.217,104.492 448.5,103.5C 447.757,102.818 447.091,102.151 446.5,101.5C 447.5,101.5 448.5,101.5 449.5,101.5C 449.5,102.833 449.5,104.167 449.5,105.5C 444.5,105.5 439.5,105.5 434.5,105.5C 434.232,103.901 434.566,102.568 435.5,101.5 Z"/></g>
<g><path style="opacity:0.682" fill="#717189" d="M 465.5,101.5 C 465.5,102.5 465.5,103.5 465.5,104.5C 470.875,104.828 476.208,104.495 481.5,103.5C 480.757,102.818 480.091,102.151 479.5,101.5C 480.5,101.5 481.5,101.5 482.5,101.5C 482.5,102.833 482.5,104.167 482.5,105.5C 476.5,105.5 470.5,105.5 464.5,105.5C 464.232,103.901 464.566,102.568 465.5,101.5 Z"/></g>
<g><path style="opacity:0.681" fill="#6e6d86" d="M 529.5,101.5 C 530.434,102.568 530.768,103.901 530.5,105.5C 524.974,105.821 519.64,105.488 514.5,104.5C 519.5,104.5 524.5,104.5 529.5,104.5C 529.5,103.5 529.5,102.5 529.5,101.5 Z"/></g>
<g><path style="opacity:0.685" fill="#62617c" d="M 535.5,100.5 C 534.993,101.859 533.993,102.859 532.5,103.5C 537.167,104.833 541.833,104.833 546.5,103.5C 545.007,102.859 544.007,101.859 543.5,100.5C 544.708,101.234 546.041,101.567 547.5,101.5C 547.5,102.833 547.5,104.167 547.5,105.5C 542.167,105.5 536.833,105.5 531.5,105.5C 531.5,104.167 531.5,102.833 531.5,101.5C 532.959,101.567 534.292,101.234 535.5,100.5 Z"/></g>
<g><path style="opacity:0.682" fill="#62617c" d="M 640.5,101.5 C 640.196,102.15 639.863,102.817 639.5,103.5C 644.833,104.833 650.167,104.833 655.5,103.5C 654.398,102.824 653.398,102.158 652.5,101.5C 653.833,101.5 655.167,101.5 656.5,101.5C 656.5,102.833 656.5,104.167 656.5,105.5C 650.5,105.5 644.5,105.5 638.5,105.5C 638.157,103.517 638.824,102.183 640.5,101.5 Z"/></g>
<g><path style="opacity:0.941" fill="#646c9a" d="M 119.5,102.5 C 120.924,104.515 121.59,106.848 121.5,109.5C 120.076,107.485 119.41,105.152 119.5,102.5 Z"/></g>
<g><path style="opacity:0.967" fill="#63638f" d="M 73.5,99.5 C 72.6228,108.133 72.2895,116.8 72.5,125.5C 72.1667,125.5 71.8333,125.5 71.5,125.5C 70.502,118.862 70.3354,112.195 71,105.5C 71.5662,103.277 72.3995,101.277 73.5,99.5 Z"/></g>
<g><path style="opacity:0.885" fill="#716a86" d="M 50.5,100.5 C 50.5,101.167 50.5,101.833 50.5,102.5C 50.5,106.167 50.5,109.833 50.5,113.5C 38.8333,113.5 27.1667,113.5 15.5,113.5C 15.5,109.833 15.5,106.167 15.5,102.5C 15.8333,102.5 16.1667,102.5 16.5,102.5C 16.5,105.833 16.5,109.167 16.5,112.5C 27.5,112.5 38.5,112.5 49.5,112.5C 49.1832,108.298 49.5166,104.298 50.5,100.5 Z"/></g>
<g><path style="opacity:0.94" fill="#5f4f76" d="M 146.5,105.5 C 147.468,107.607 147.802,109.941 147.5,112.5C 158.167,112.5 168.833,112.5 179.5,112.5C 180.167,112.5 180.5,112.833 180.5,113.5C 169.167,113.5 157.833,113.5 146.5,113.5C 146.5,110.833 146.5,108.167 146.5,105.5 Z"/></g>
<g><path style="opacity:0.091" fill="#e5e5e6" d="M 296.5,112.5 C 295.194,113.467 294.527,114.801 294.5,116.5C 299.833,116.5 305.167,116.5 310.5,116.5C 305.025,117.489 299.358,117.822 293.5,117.5C 293.5,115.833 293.5,114.167 293.5,112.5C 294.5,112.5 295.5,112.5 296.5,112.5 Z"/></g>
<g><path style="opacity:1" fill="#3548a3" d="M 100.5,120.5 C 97.4928,122.175 94.1595,122.841 90.5,122.5C 90.5,124.5 90.5,126.5 90.5,128.5C 91.5,128.5 92.5,128.5 93.5,128.5C 93.5,128.833 93.5,129.167 93.5,129.5C 91.0411,129.31 89.3745,130.31 88.5,132.5C 91.2971,125.984 89.2971,122.318 82.5,121.5C 82.3343,117.154 82.501,112.821 83,108.5C 83.4988,112.486 83.6655,116.486 83.5,120.5C 89.1667,120.5 94.8333,120.5 100.5,120.5 Z"/></g>
<g><path style="opacity:1" fill="#efb0e6" d="M 104.5,118.5 C 106.527,118.338 108.527,118.505 110.5,119C 105.167,119.667 105.167,120.333 110.5,121C 104.132,121.849 98.4652,124.349 93.5,128.5C 92.5,128.5 91.5,128.5 90.5,128.5C 90.5,126.5 90.5,124.5 90.5,122.5C 94.1595,122.841 97.4928,122.175 100.5,120.5C 101.605,119.4 102.938,118.733 104.5,118.5 Z"/></g>
<g><path style="opacity:1" fill="#2b2c53" d="M 122.5,113.5 C 123.434,116.854 125.101,119.854 127.5,122.5C 126.291,124.941 124.624,126.941 122.5,128.5C 121.761,128.631 121.094,128.464 120.5,128C 121.252,127.329 121.586,126.496 121.5,125.5C 122.289,125.217 122.956,124.717 123.5,124C 116.833,123.333 110.167,123.333 103.5,124C 101.099,126.062 98.4326,127.729 95.5,129C 99.8206,129.499 104.154,129.666 108.5,129.5C 110.099,129.232 111.432,129.566 112.5,130.5C 105.978,130.823 99.6446,130.49 93.5,129.5C 93.5,129.167 93.5,128.833 93.5,128.5C 98.4652,124.349 104.132,121.849 110.5,121C 105.167,120.333 105.167,119.667 110.5,119C 108.527,118.505 106.527,118.338 104.5,118.5C 104.124,115.373 104.124,112.373 104.5,109.5C 105.949,111.611 106.949,113.944 107.5,116.5C 108.689,117.429 110.022,117.762 111.5,117.5C 111.5,118.833 111.5,120.167 111.5,121.5C 113.124,121.64 114.29,120.973 115,119.5C 117.456,121.321 120.289,121.988 123.5,121.5C 122.908,118.873 122.575,116.206 122.5,113.5 Z"/></g>
<g><path style="opacity:1" fill="#f1d357" d="M 121.5,125.5 C 121.167,125.5 120.833,125.5 120.5,125.5C 116.735,124.06 113.068,124.56 109.5,127C 108.748,127.671 108.414,128.504 108.5,129.5C 104.154,129.666 99.8206,129.499 95.5,129C 98.4326,127.729 101.099,126.062 103.5,124C 110.167,123.333 116.833,123.333 123.5,124C 122.956,124.717 122.289,125.217 121.5,125.5 Z"/></g>
<g><path style="opacity:1" fill="#ddaada" d="M 120.5,125.5 C 120.833,125.5 121.167,125.5 121.5,125.5C 121.586,126.496 121.252,127.329 120.5,128C 121.094,128.464 121.761,128.631 122.5,128.5C 120.316,130.585 117.649,131.585 114.5,131.5C 115.117,129.771 116.117,128.271 117.5,127C 116.5,126.667 115.5,126.333 114.5,126C 116.473,125.505 118.473,125.338 120.5,125.5 Z"/></g>
<g><path style="opacity:1" fill="#6d567e" d="M 120.5,125.5 C 118.473,125.338 116.473,125.505 114.5,126C 115.5,126.333 116.5,126.667 117.5,127C 116.117,128.271 115.117,129.771 114.5,131.5C 114.5,133.167 114.5,134.833 114.5,136.5C 114.167,136.5 113.833,136.5 113.5,136.5C 113.795,134.265 113.461,132.265 112.5,130.5C 111.432,129.566 110.099,129.232 108.5,129.5C 108.414,128.504 108.748,127.671 109.5,127C 113.068,124.56 116.735,124.06 120.5,125.5 Z"/></g>
<g><path style="opacity:1" fill="#0062e2" d="M 93.5,129.5 C 99.6446,130.49 105.978,130.823 112.5,130.5C 113.461,132.265 113.795,134.265 113.5,136.5C 106.582,137.179 99.7486,138.179 93,139.5C 91.103,137.984 88.9363,137.317 86.5,137.5C 85.791,136.596 84.791,136.263 83.5,136.5C 83.5,135.5 83.5,134.5 83.5,133.5C 85.4147,133.784 87.0813,133.451 88.5,132.5C 89.3745,130.31 91.0411,129.31 93.5,129.5 Z"/></g>
<g><path style="opacity:0.196" fill="#a6a7bc" d="M 71.5,125.5 C 71.8333,125.5 72.1667,125.5 72.5,125.5C 72.9926,127.806 73.3259,130.139 73.5,132.5C 72.0762,130.485 71.4095,128.152 71.5,125.5 Z"/></g>
<g><path style="opacity:1" fill="#081035" d="M 113.5,136.5 C 113.833,136.5 114.167,136.5 114.5,136.5C 115.819,142.419 116.486,148.419 116.5,154.5C 115.833,155.167 115.167,155.833 114.5,156.5C 105.602,158.67 96.6015,159.003 87.5,157.5C 86.1225,156.766 84.6225,156.099 83,155.5C 82.9565,152.525 83.1231,149.525 83.5,146.5C 87.3107,146.404 87.3107,145.738 83.5,144.5C 83.8875,141.762 84.8875,139.428 86.5,137.5C 88.9363,137.317 91.103,137.984 93,139.5C 99.7486,138.179 106.582,137.179 113.5,136.5 Z"/></g>
<g><path style="opacity:1" fill="#272c59" d="M 73.5,132.5 C 78.5,132.5 83.5,132.5 88.5,132.5C 87.0813,133.451 85.4147,133.784 83.5,133.5C 83.5,134.5 83.5,135.5 83.5,136.5C 84.791,136.263 85.791,136.596 86.5,137.5C 84.8875,139.428 83.8875,141.762 83.5,144.5C 87.3107,145.738 87.3107,146.404 83.5,146.5C 83.1231,149.525 82.9565,152.525 83,155.5C 84.6225,156.099 86.1225,156.766 87.5,157.5C 85.3792,157.675 83.3792,157.341 81.5,156.5C 79.7982,154.2 79.1315,151.533 79.5,148.5C 80.2577,143.756 81.091,139.089 82,134.5C 79.0614,133.872 76.2281,133.205 73.5,132.5 Z"/></g>
<g><path style="opacity:0.247" fill="#c9c9d2" d="M 79.5,148.5 C 79.1315,151.533 79.7982,154.2 81.5,156.5C 80.5,156.5 79.5,156.5 78.5,156.5C 78.1936,153.615 78.5269,150.948 79.5,148.5 Z"/></g>
<g><path style="opacity:0.024" fill="#d6d6dc" d="M 116.5,154.5 C 117.043,154.56 117.376,154.893 117.5,155.5C 116.675,156.386 115.675,156.719 114.5,156.5C 115.167,155.833 115.833,155.167 116.5,154.5 Z"/></g>
<g><path style="opacity:0.686" fill="#79737f" d="M 24.5,136.5 C 41.5577,137.05 47.391,145.383 42,161.5C 35.1246,169.255 27.2912,170.422 18.5,165C 12.2709,158.169 11.4375,150.669 16,142.5C 18.3218,139.605 21.1552,137.605 24.5,136.5 Z"/></g>
<g><path style="opacity:1" fill="#f2d357" d="M 23.5,138.5 C 38.7613,137.701 44.5946,144.701 41,159.5C 37.0194,165.216 31.5194,167.383 24.5,166C 13.6362,160.004 11.8029,151.837 19,141.5C 20.6516,140.601 22.1516,139.601 23.5,138.5 Z"/></g>
<g><path style="opacity:1" fill="#2b2433" d="M 36.5,150.5 C 37.9468,151.134 38.6134,152.301 38.5,154C 38.6134,155.699 37.9468,156.866 36.5,157.5C 37.8333,155.167 37.8333,152.833 36.5,150.5 Z"/></g>
<g><path style="opacity:1" fill="#eacd56" d="M 33.5,145.5 C 31.5,145.5 29.5,145.5 27.5,145.5C 27.6713,148.797 27.0046,149.131 25.5,146.5C 22.6493,147.012 21.3159,148.679 21.5,151.5C 24.2108,151.815 26.5441,151.148 28.5,149.5C 31.0298,149.514 33.6964,149.847 36.5,150.5C 37.8333,152.833 37.8333,155.167 36.5,157.5C 34.8599,158.32 33.1932,159.153 31.5,160C 30.3595,160.741 30.3595,161.575 31.5,162.5C 31.0431,163.298 30.3764,163.631 29.5,163.5C 29.5,162.5 29.5,161.5 29.5,160.5C 26.4816,160.665 23.4816,160.498 20.5,160C 22.9368,158.625 25.6035,158.125 28.5,158.5C 28.5,156.833 28.5,155.167 28.5,153.5C 25.5525,153.777 22.7191,153.444 20,152.5C 19.5325,148.785 21.0325,146.119 24.5,144.5C 25.2679,143.737 25.7679,142.737 26,141.5C 26.3742,142.416 26.8742,143.25 27.5,144C 29.7078,144.191 31.7078,144.691 33.5,145.5 Z"/></g>
<g><path style="opacity:1" fill="#968348" d="M 34.5,153.5 C 35.3519,155.709 34.3519,157.043 31.5,157.5C 30.2867,157.253 29.62,156.586 29.5,155.5C 30.7791,154.032 32.4458,153.365 34.5,153.5 Z"/></g>
<g><path style="opacity:1" fill="#342c35" d="M 34.5,153.5 C 32.4458,153.365 30.7791,154.032 29.5,155.5C 29.5,154.5 29.5,153.5 29.5,152.5C 31.4147,152.216 33.0813,152.549 34.5,153.5 Z"/></g>
<g><path style="opacity:1" fill="#938147" d="M 33.5,145.5 C 32.0813,146.451 30.4147,146.784 28.5,146.5C 28.5,147.5 28.5,148.5 28.5,149.5C 26.5441,151.148 24.2108,151.815 21.5,151.5C 21.3159,148.679 22.6493,147.012 25.5,146.5C 27.0046,149.131 27.6713,148.797 27.5,145.5C 29.5,145.5 31.5,145.5 33.5,145.5 Z"/></g>
<g><path style="opacity:1" fill="#463c39" d="M 36.5,150.5 C 33.6964,149.847 31.0298,149.514 28.5,149.5C 28.5,148.5 28.5,147.5 28.5,146.5C 30.4147,146.784 32.0813,146.451 33.5,145.5C 31.7078,144.691 29.7078,144.191 27.5,144C 26.8742,143.25 26.3742,142.416 26,141.5C 25.7679,142.737 25.2679,143.737 24.5,144.5C 24.3868,139.214 25.7202,138.547 28.5,142.5C 30.396,143.466 32.396,143.799 34.5,143.5C 34.5,144.833 34.5,146.167 34.5,147.5C 28.1962,147.831 28.5295,148.331 35.5,149C 36.056,149.383 36.3893,149.883 36.5,150.5 Z"/></g>
<g><path style="opacity:1" fill="#493e39" d="M 24.5,144.5 C 21.0325,146.119 19.5325,148.785 20,152.5C 22.7191,153.444 25.5525,153.777 28.5,153.5C 28.5,155.167 28.5,156.833 28.5,158.5C 25.6035,158.125 22.9368,158.625 20.5,160C 23.4816,160.498 26.4816,160.665 29.5,160.5C 29.5,161.5 29.5,162.5 29.5,163.5C 26.5118,161.727 23.1785,161.06 19.5,161.5C 19.3832,159.516 20.0499,157.85 21.5,156.5C 23.5159,157.706 25.5159,157.706 27.5,156.5C 24.5054,155.867 21.672,154.867 19,153.5C 17.3908,148.293 19.2241,145.293 24.5,144.5 Z"/></g>
<g><path style="opacity:1" fill="#53483b" d="M 36.5,157.5 C 36.2131,159.121 35.2131,160.121 33.5,160.5C 32.5713,161.689 32.238,163.022 32.5,164.5C 31.209,164.737 30.209,164.404 29.5,163.5C 30.3764,163.631 31.0431,163.298 31.5,162.5C 30.3595,161.575 30.3595,160.741 31.5,160C 33.1932,159.153 34.8599,158.32 36.5,157.5 Z"/></g>
</svg>
